<svg width="32" height="32" viewBox="0 0 24 24" fill="none" xmlns="http://www.w3.org/2000/svg">
<g clip-path="url(#clip0)">

<path d="M13.8072 10.5638C13.3199 10.1446 12.7862 9.8122 12.2264 9.5641C12.4461 9.3812 12.654 11.18 12.8476 8.9586C14.8215 6.7012 14.5774 3.283 12.3022 1.3246C11.2685 0.4351 9.995 0 8.7273 0.0008L1 0V23H16V15.3801C16.0126 13.5987 15.2694 11.8232 13.8072 10.5638ZM12.8182 21.1961H10.0909V13.5294H6.9091V21.1961H4.1818V1.8039H7.3636C9.0581 1.8039 10.4815 2.9539 10.8855 4.5098H7.8182V6.3137H10.8838C10.4806 7.8688 9.0598 9.0179 7.367 9.0196H7.3603H6V10.8235H8.2727C9.3291 10.8227 10.3906 11.186 11.2517 11.9268C12.287 12.8179 12.8165 14.0723 12.8173 15.3333H12.819L12.8182 21.1961Z" fill="#002D6E"/>

</g>
<defs>
<clipPath id="clip0">
<rect x="0" y="0" width="32" height="32" fill="none"/>
</clipPath>
</defs>
</svg>
